{"title":"Ra One (2011) Tamil 1CD DVDSCR XviD MTR","uid":6790409,"size":768538456,"categoryP":"video","categoryS":"movies","magnet":"?xt=urn:btih:61eae004bd271e6ff556b3008526ec345a155977&amp;dn=Ra+One+%282011%29+Tamil+1CD+DVDSCR+XviD+MTR&amp;tr=udp%3A%2F%2Ftracker.openbittorrent.com%3A80&amp;tr=udp%3A%2F%2Fopen.demonii.com%3A1337&amp;tr=udp%3A%2F%2Ftracker.coppersurfer.tk%3A6969&amp;tr=udp%3A%2F%2Fexodus.desync.com%3A6969","seeders":0,"leechers":0,"uploader":"HDvideos","files":-1,"time":1320242689,"description":"mastitorrents.com\n &lt;a href=&quot;\nhttp://mastitorrents.com/forums/index.php&quot; rel=&quot;nofollow&quot; target=&quot;_NEW&quot;&gt;\nhttp://mastitorrents.com/forums/index.php&lt;/a&gt;\n &lt;a href=&quot;\nhttp://thepiratebay.se/user/HDvideos/0/7&quot; rel=&quot;nofollow&quot; target=&quot;_NEW&quot;&gt;\nhttp://thepiratebay.se/user/HDvideos/0/7&lt;/a&gt;\n\nRa One (2011) Tamil 1CD DVDSCR XviD MTR@Mastitorrents\n\nFormat                           : AVI\nFormat/Info                      : Audio Video Interleave\nFile size                        : 733 MiB\nDuration                         : 2h 32mn\nOverall bit rate                 : 673 Kbps\n\nVideo\n\nID                               : 0\nFormat                           : MPEG-4 Visual\nFormat profile                   : Advanced Simple@L5\nFormat settings, BVOP            : 2\nFormat settings, QPel            : No\nFormat settings, GMC             : No warppoints\nFormat settings, Matrix          : Default (MPEG)\nCodec ID                         : XVID\nCodec ID/Hint                    : XviD\nDuration                         : 2h 32mn\nBit rate                         : 538 Kbps\nWidth                            : 672 pixels\nHeight                           : 272 pixels\nDisplay aspect ratio             : 2.471\nFrame rate                       : 29.970 fps\nColor space                      : YUV\nChroma subsampling               : 4:2:0\nBit depth                        : 8 bits\nScan type                        : Interlaced\nScan order                       : Bottom Field First\nCompression mode                 : Lossy\nBits/(Pixel*Frame)               : 0.098\nStream size                      : 586 MiB (80%)\nWriting library                  : XviD 1.2.1 (UTC 2008-12-04)\n\nAudio\n\nID                               : 1\nFormat                           : MPEG Audio\nFormat version                   : Version 1\nFormat profile                   : Layer 3\nMode                             : Joint stereo\nCodec ID                         : 55\nCodec ID/Hint                    : MP3\nDuration                         : 2h 32mn\nBit rate mode                    : Constant\nBit rate                         : 128 Kbps\nChannel(s)                       : 2 channels\nSampling rate                    : 44.1 KHz\nCompression mode                 : Lossy\nStream size                      : 139 MiB (19%)\nAlignment                        : Aligned on interleaves\nInterleave, duration             : 133 ms (4.00 video frames)\nInterleave, preload duration     : 208 ms\nTitle                            : SIVA\nWriting library                  : LAME3.98r\nEncoding settings                : -m j -V 4 -q 2 -lowpass 17 -b 128","torrent":{"xt":"urn:btih:61eae004bd271e6ff556b3008526ec345a155977","amp;dn":"Ra+One+%282011%29+Tamil+1CD+DVDSCR+XviD+MTR","amp;tr":["udp%3A%2F%2Ftracker.openbittorrent.com%3A80","udp%3A%2F%2Fopen.demonii.com%3A1337","udp%3A%2F%2Ftracker.coppersurfer.tk%3A6969","udp%3A%2F%2Fexodus.desync.com%3A6969"],"infoHash":"61eae004bd271e6ff556b3008526ec345a155977","infoHashBuffer":{"type":"Buffer","data":[97,234,224,4,189,39,30,111,245,86,179,0,133,38,236,52,90,21,89,119]},"announce":[],"urlList":[]}}